{"title":"Scienceless.Fiction.2014.1080p.BluRay.x264-SADPANDA[rarbg]","uid":11975263,"size":7039675389,"categoryP":"video","categoryS":"hd___movies","magnet":"?xt=urn:btih:f7c499a98924c314ad1043bc167626bfe1123987&amp;dn=Scienceless.Fiction.2014.1080p.BluRay.x264-SADPANDA%5Brarbg%5D&amp;tr=udp%3A%2F%2Ftracker.openbittorrent.com%3A80&amp;tr=udp%3A%2F%2Fopen.demonii.com%3A1337&amp;tr=udp%3A%2F%2Ftracker.coppersurfer.tk%3A6969&amp;tr=udp%3A%2F%2Fexodus.desync.com%3A6969","seeders":0,"leechers":0,"uploader":"vickey1992","files":4,"time":1432993981,"description":"SunZero\n+2010\n\nhappyface\nor..\n\nSADPANDA\n\nBrings You\n\nScienceless.Fiction.2014.1080p.BluRay.x264-SADPANDA\n\n*SOURCE.................BluRay\n*FORMAT.................Matroska\n*SIZE...................6.56 GB\n*TV-RAGE RATING.........N?A\n*IMDB RATING............6.9/10 from 4,285 users\n*AUDIO..................English Ac3 192Kbps 2 Ch\n*VIDEO..................x264 1920x1080 8,411Kbps 23.97 fps\n*SUBTITLES..............N/A\n*AR.....................WS\n*RUNTIME................109min\n*GENRE..................Action  Comedy  Fantasy\n*PLOT...................N/A\n*TV-RAGE URL............N/A\n*IMDB URL...............http://www.imdb.com/title/tt3447592/\n\n\n\nVideo\nID                                       : 1\nFormat                                   : AVC\nFormat/Info                              : Advanced Video Codec\nFormat profile                           : &lt;a class=&quot;__cf_email__&quot; href=&quot;/cdn-cgi/l/email-protection&quot; data-cfemail=&quot;9bd3f2fcf3dbd7afb5aa&quot;&gt;[email&amp;#160;protected]&lt;/a&gt;&lt;script data-cfhash='f9e31' type=&quot;text/javascript&quot;&gt;\n/* &lt;![CDATA[ */!function(){try{var t=&quot;currentScript&quot;in document?document.currentScript:function(){for(var t=document.getElementsByTagName(&quot;script&quot;),e=t.length;e--;)if(t[e].getAttribute(&quot;data-cfhash&quot;))return t[e]}();if(t&amp;&amp;t.previousSibling){var e,r,n,i,c=t.previousSibling,a=c.getAttribute(&quot;data-cfemail&quot;);if(a){for(e=&quot;&quot;,r=parseInt(a.substr(0,2),16),n=2;a.length-n;n+=2)i=parseInt(a.substr(n,2),16)^r,e+=String.fromCharCode(i);e=document.createTextNode(e),c.parentNode.replaceChild(e,c)}t.parentNode.removeChild(t);}}catch(u){}}()/* ]]&gt; */&lt;/script&gt;\nFormat settings, CABAC                   : Yes\nFormat settings, ReFrames                : 4 frames\nCodec ID                                 : V_MPEG4/ISO/AVC\nDuration                                 : 1h 49mn\nBit rate                                 : 8 411 Kbps\nWidth                                    : 1 920 pixels\nHeight                                   : 1 080 pixels\nDisplay aspect ratio                     : 16:9\nFrame rate mode                          : Constant\nFrame rate                               : 23.976 fps\nColor space                              : YUV\nChroma subsampling                       : 4:2:0\nBit depth                                : 8 bits\nScan type                                : Progressive\nBits/(Pixel*Frame)                       : 0.169\nStream size                              : 6.28 GiB (96%)\nWriting library                          : x264 core 146 r2538 121396c\nEncoding settings                        : cabac=1 / ref=4 / deblock=1:0:0 / analyse=0x3:0x133 / me=umh / subme=8 / psy=1 / psy_rd=1.00:0.00 / mixed_ref=1 / me_range=16 / chroma_me=1 / trellis=1 / 8x8dct=1 / cqm=0 / deadzone=21,11 / fast_pskip=0 / chroma_qp_offset=-2 / threads=12 / lookahead_threads=2 / sliced_threads=0 / nr=0 / decimate=1 / interlaced=0 / bluray_compat=0 / constrained_intra=0 / bframes=3 / b_pyramid=2 / b_adapt=1 / b_bias=0 / direct=1 / weightb=1 / open_gop=0 / weightp=2 / keyint=250 / keyint_min=23 / scenecut=40 / intra_refresh=0 / rc_lookahead=40 / rc=2pass / mbtree=1 / bitrate=8411 / ratetol=1.0 / qcomp=0.60 / qpmin=0 / qpmax=69 / qpstep=4 / cplxblur=20.0 / qblur=0.5 / ip_ratio=1.40 / aq=1:1.00\nLanguage                                 : English\nDefault                                  : Yes\nForced                                   : No\nDURATION                                 : 01:49:05.206000000\nNUMBER_OF_FRAMES                         : 156928\nNUMBER_OF_BYTES                          : 6881038059\n_STATISTICS_WRITING_APP                  : mkvmerge v7.8.0 ('River Man') 64bit built on Mar 27 2015 16:31:37\n_STATISTICS_WRITING_DATE_UTC             : 2015-05-27 13:11:40\n_STATISTICS_TAGS                         : BPS DURATION NUMBER_OF_FRAMES NUMBER_OF_BYTES\n\nAudio\nID                                       : 2\nFormat                                   : AC-3\nFormat/Info                              : Audio Coding 3\nMode extension                           : CM (complete main)\nFormat settings, Endianness              : Big\nCodec ID                                 : A_AC3\nDuration                                 : 1h 49mn\nBit rate mode                            : Constant\nBit rate                                 : 192 Kbps\nChannel(s)                               : 2 channels\nChannel positions                        : Front: L R\nSampling rate                            : 48.0 KHz\nBit depth                                : 16 bits\nCompression mode                         : Lossy\nStream size                              : 150 MiB (2%)\nLanguage                                 : English\nDefault                                  : Yes\nForced                                   : No","torrent":{"xt":"urn:btih:f7c499a98924c314ad1043bc167626bfe1123987","amp;dn":"Scienceless.Fiction.2014.1080p.BluRay.x264-SADPANDA%5Brarbg%5D","amp;tr":["udp%3A%2F%2Ftracker.openbittorrent.com%3A80","udp%3A%2F%2Fopen.demonii.com%3A1337","udp%3A%2F%2Ftracker.coppersurfer.tk%3A6969","udp%3A%2F%2Fexodus.desync.com%3A6969"],"infoHash":"f7c499a98924c314ad1043bc167626bfe1123987","infoHashBuffer":{"type":"Buffer","data":[247,196,153,169,137,36,195,20,173,16,67,188,22,118,38,191,225,18,57,135]},"announce":[],"urlList":[]}}